<svg width="30" height="30" viewBox="0 0 30 30" fill="none" xmlns="http://www.w3.org/2000/svg">
<path fill-rule="evenodd" clip-rule="evenodd" d="M15.24 12.9337C14.4713 12.9337 13.7985 13.6065 13.7985 14.4712C13.7985 15.2399 14.4712 15.9127 15.24 15.9127C16.105 15.9127 16.7775 15.24 16.7775 14.4712C16.7775 13.6062 16.1048 12.9337 15.24 12.9337ZM21.6783 12.9337C20.8133 12.9337 20.1408 13.6065 20.1408 14.4712C20.1408 15.2399 20.8136 15.9127 21.6783 15.9127C22.5433 15.9127 23.2158 15.24 23.2158 14.4712C23.2158 13.6062 22.543 12.9337 21.6783 12.9337ZM8.89773 12.9337C8.03276 12.9337 7.36024 13.6065 7.36024 14.4712C7.36024 15.2399 8.03299 15.9127 8.89773 15.9127C9.66647 15.9127 10.3393 15.24 10.3393 14.4712C10.3393 13.6062 9.66653 12.9337 8.89773 12.9337ZM15.24 0.345146C7.45659 0.345146 1.11373 6.68743 1.11373 14.5674C1.11373 18.3152 2.65122 21.9669 5.34184 24.6577C4.47687 25.7149 3.13156 26.1952 1.78624 26.4836C0.248759 26.772 0.15253 28.5977 1.88245 29.1742C4.47708 30.0392 8.51331 29.847 10.819 28.0211C19.7556 31.0001 29.4619 24.3695 29.4619 14.5679C29.4619 6.68795 23.1196 0.34566 15.2396 0.34566L15.24 0.345146ZM15.24 2.8436C21.7749 2.8436 26.9634 8.03286 26.9634 14.567C26.9634 23.5036 18.2189 28.5973 10.1469 25.3299C8.89756 26.7714 8.22499 26.9636 6.3031 27.1558C7.36024 26.1949 7.74464 25.3299 8.32116 24.0808L7.64842 23.4081C5.05379 21.1978 3.5163 18.0266 3.5163 14.5675C3.5163 8.03263 8.80156 2.84406 15.2397 2.84406L15.24 2.8436Z" fill="black"/>
</svg>
